BodoniModa-96ptBlackItalic.ufo
<glyph name="parenright" format="2">
  <advance width="769"/>
  <unicode hex="0029"/>
  <outline>
    <contour>
      <point x="-182" y="-340" type="line"/>
      <point x="204" y="-180"/>
      <point x="660" y="304"/>
      <point x="660" y="890" type="curve" smooth="yes"/>
      <point x="660" y="1236"/>
      <point x="484" y="1500"/>
      <point x="258" y="1600" type="curve"/>
      <point x="256" y="1598" type="line"/>
      <point x="288" y="1538"/>
      <point x="302" y="1414"/>
      <point x="302" y="1270" type="curve" smooth="yes"/>
      <point x="302" y="826"/>
      <point x="124" y="-98"/>
      <point x="-184" y="-338" type="curve"/>
    </contour>
  </outline>
</glyph>
<glyph name="two" format="2">
  <advance width="1319"/>
  <unicode hex="0032"/>
  <outline>
    <contour>
      <point x="-80" y="0" type="line"/>
      <point x="1068" y="0" type="line"/>
      <point x="1202" y="570" type="line"/>
      <point x="1198" y="570" type="line"/>
      <point x="1161" y="420" type="line"/>
      <point x="236" y="420" type="line"/>
      <point x="581" y="631" type="line" smooth="yes"/>
      <point x="781.307" y="753.507"/>
      <point x="1293" y="941"/>
      <point x="1293" y="1211" type="curve" smooth="yes"/>
      <point x="1293" y="1421"/>
      <point x="1082" y="1520"/>
      <point x="840" y="1520" type="curve" smooth="yes"/>
      <point x="491" y="1520"/>
      <point x="192" y="1298"/>
      <point x="192" y="1064" type="curve" smooth="yes"/>
      <point x="192" y="910"/>
      <point x="300" y="824"/>
      <point x="420" y="824" type="curve" smooth="yes"/>
      <point x="560" y="824"/>
      <point x="662" y="932"/>
      <point x="662" y="1062" type="curve" smooth="yes"/>
      <point x="662" y="1192"/>
      <point x="567" y="1264"/>
      <point x="438" y="1264" type="curve" smooth="yes"/>
      <point x="322" y="1264"/>
      <point x="194" y="1164"/>
      <point x="194" y="1064" type="curve"/>
      <point x="196" y="1064" type="line"/>
      <point x="196" y="1312"/>
      <point x="522" y="1493"/>
      <point x="690" y="1493" type="curve" smooth="yes"/>
      <point x="832" y="1493"/>
      <point x="850" y="1343"/>
      <point x="850" y="1210" type="curve" smooth="yes"/>
      <point x="850" y="992"/>
      <point x="717.517" y="719.935"/>
      <point x="477" y="572" type="curve" smooth="yes"/>
      <point x="-14" y="270" type="line"/>
    </contour>
  </outline>
</glyph>
<glyph name="three" format="2">
  <advance width="1261"/>
  <unicode hex="0033"/>
  <outline>
    <contour>
      <point x="442" y="-20" type="curve" smooth="yes"/>
      <point x="774" y="-20"/>
      <point x="1162" y="134"/>
      <point x="1162" y="464" type="curve" smooth="yes"/>
      <point x="1162" y="685"/>
      <point x="938" y="812"/>
      <point x="506" y="812" type="curve"/>
      <point x="506" y="809" type="line"/>
      <point x="724" y="809"/>
      <point x="740" y="678"/>
      <point x="740" y="530" type="curve" smooth="yes"/>
      <point x="740" y="312"/>
      <point x="660" y="-5"/>
      <point x="402" y="-5" type="curve" smooth="yes"/>
      <point x="156" y="-5"/>
      <point x="4" y="198"/>
      <point x="4" y="368" type="curve"/>
      <point x="2" y="368" type="line"/>
      <point x="2" y="268"/>
      <point x="106" y="180"/>
      <point x="214" y="180" type="curve" smooth="yes"/>
      <point x="323" y="180"/>
      <point x="427" y="271"/>
      <point x="427" y="385" type="curve" smooth="yes"/>
      <point x="427" y="507"/>
      <point x="331" y="596"/>
      <point x="220" y="596" type="curve" smooth="yes"/>
      <point x="100" y="596"/>
      <point x="0" y="500"/>
      <point x="0" y="368" type="curve" smooth="yes"/>
      <point x="0" y="193"/>
      <point x="158" y="-20"/>
    </contour>
    <contour>
      <point x="506" y="810" type="line"/>
      <point x="968" y="810"/>
      <point x="1282" y="1012"/>
      <point x="1282" y="1212" type="curve" smooth="yes"/>
      <point x="1282" y="1433"/>
      <point x="975" y="1518"/>
      <point x="752" y="1518" type="curve" smooth="yes"/>
      <point x="548" y="1518"/>
      <point x="279" y="1405"/>
      <point x="279" y="1200" type="curve" smooth="yes"/>
      <point x="279" y="1068"/>
      <point x="384" y="976"/>
      <point x="495" y="976" type="curve" smooth="yes"/>
      <point x="595" y="976"/>
      <point x="708" y="1057"/>
      <point x="708" y="1187" type="curve" smooth="yes"/>
      <point x="708" y="1307"/>
      <point x="604" y="1393"/>
      <point x="495" y="1393" type="curve" smooth="yes"/>
      <point x="394" y="1393"/>
      <point x="281" y="1310"/>
      <point x="281" y="1200" type="curve"/>
      <point x="283" y="1200" type="line"/>
      <point x="283" y="1410"/>
      <point x="559" y="1505"/>
      <point x="692" y="1505" type="curve" smooth="yes"/>
      <point x="830" y="1505"/>
      <point x="860" y="1390"/>
      <point x="860" y="1262" type="curve" smooth="yes"/>
      <point x="860" y="1134"/>
      <point x="794" y="813"/>
      <point x="506" y="813" type="curve"/>
    </contour>
  </outline>
</glyph>
<glyph name="nine" format="2">
  <advance width="1319"/>
  <unicode hex="0039"/>
  <outline>
    <contour>
      <point x="159" y="-20" type="line"/>
      <point x="845" y="-20"/>
      <point x="1389" y="554"/>
      <point x="1389" y="1060" type="curve" smooth="yes"/>
      <point x="1389" y="1380"/>
      <point x="1183" y="1520"/>
      <point x="921" y="1520" type="curve" smooth="yes"/>
      <point x="579" y="1520"/>
      <point x="209" y="1280"/>
      <point x="209" y="900" type="curve" smooth="yes"/>
      <point x="209" y="620"/>
      <point x="435" y="510"/>
      <point x="637" y="510" type="curve" smooth="yes"/>
      <point x="981" y="510"/>
      <point x="987" y="1166"/>
      <point x="987" y="1340" type="curve"/>
      <point x="983" y="1340" type="line"/>
      <point x="983" y="1144"/>
      <point x="961" y="568"/>
      <point x="713" y="568" type="curve" smooth="yes"/>
      <point x="665" y="568"/>
      <point x="649" y="612"/>
      <point x="649" y="720" type="curve" smooth="yes"/>
      <point x="649" y="928"/>
      <point x="767" y="1516"/>
      <point x="907" y="1516" type="curve" smooth="yes"/>
      <point x="959" y="1516"/>
      <point x="983" y="1428"/>
      <point x="983" y="1340" type="curve"/>
      <point x="983" y="1340" type="line"/>
      <point x="983" y="736"/>
      <point x="807" y="-16"/>
      <point x="159" y="-16" type="curve"/>
    </contour>
  </outline>
</glyph>
<glyph name="greater" format="2">
  <advance width="1119"/>
  <unicode hex="003E"/>
  <outline>
    <contour>
      <point x="1000" y="774" type="line"/>
      <point x="1000" y="778" type="line"/>
      <point x="120" y="1200" type="line"/>
      <point x="120" y="1196" type="line"/>
    </contour>
    <contour>
      <point x="120" y="350" type="line"/>
      <point x="1000" y="772" type="line"/>
      <point x="1000" y="776" type="line"/>
      <point x="120" y="354" type="line"/>
    </contour>
  </outline>
</glyph>
<glyph name="at" format="2">
  <advance width="2019"/>
  <unicode hex="0040"/>
  <outline>
    <contour>
      <point x="838" y="-428" type="curve" smooth="yes"/>
      <point x="1164" y="-428"/>
      <point x="1402" y="-324"/>
      <point x="1570" y="-128" type="curve"/>
      <point x="1566" y="-126" type="line"/>
      <point x="1400" y="-320"/>
      <point x="1162" y="-424"/>
      <point x="838" y="-424" type="curve" smooth="yes"/>
      <point x="476" y="-424"/>
      <point x="114" y="-204"/>
      <point x="114" y="422" type="curve" smooth="yes"/>
      <point x="114" y="1046"/>
      <point x="592" y="1576"/>
      <point x="1170" y="1576" type="curve" smooth="yes"/>
      <point x="1674" y="1576"/>
      <point x="1906" y="1164"/>
      <point x="1906" y="802" type="curve" smooth="yes"/>
      <point x="1906" y="428"/>
      <point x="1678" y="184"/>
      <point x="1494" y="184" type="curve" smooth="yes"/>
      <point x="1400" y="184"/>
      <point x="1430" y="292"/>
      <point x="1452" y="390" type="curve" smooth="yes"/>
      <point x="1604" y="1040" type="line"/>
      <point x="1184" y="1040" type="line"/>
      <point x="1040" y="420" type="line" smooth="yes"/>
      <point x="1012" y="296"/>
      <point x="1024" y="136"/>
      <point x="1322" y="136" type="curve" smooth="yes"/>
      <point x="1724" y="136"/>
      <point x="1910" y="462"/>
      <point x="1910" y="802" type="curve" smooth="yes"/>
      <point x="1910" y="1168"/>
      <point x="1676" y="1580"/>
      <point x="1170" y="1580" type="curve" smooth="yes"/>
      <point x="584" y="1580"/>
      <point x="110" y="1048"/>
      <point x="110" y="422" type="curve" smooth="yes"/>
      <point x="110" y="-208"/>
      <point x="472" y="-428"/>
    </contour>
    <contour>
      <point x="708" y="140" type="curve" smooth="yes"/>
      <point x="968" y="140"/>
      <point x="1086" y="414"/>
      <point x="1086" y="738" type="curve" smooth="yes"/>
      <point x="1086" y="902"/>
      <point x="1056" y="1058"/>
      <point x="854" y="1058" type="curve" smooth="yes"/>
      <point x="616" y="1058"/>
      <point x="408" y="760"/>
      <point x="408" y="460" type="curve" smooth="yes"/>
      <point x="408" y="252"/>
      <point x="530" y="140"/>
    </contour>
    <contour>
      <point x="928" y="274" type="curve" smooth="yes"/>
      <point x="880" y="274"/>
      <point x="850" y="346"/>
      <point x="850" y="480" type="curve" smooth="yes"/>
      <point x="850" y="728"/>
      <point x="968" y="926"/>
      <point x="1034" y="926" type="curve" smooth="yes"/>
      <point x="1078" y="926"/>
      <point x="1078" y="776"/>
      <point x="1078" y="692" type="curve" smooth="yes"/>
      <point x="1078" y="476"/>
      <point x="990" y="274"/>
    </contour>
  </outline>
</glyph>
<glyph name="H" format="2">
  <advance width="1669"/>
  <unicode hex="0048"/>
  <anchor x="721" y="0" name="bottom"/>
  <anchor x="278" y="0" name="cedilla"/>
  <anchor x="1049" y="1500" name="top"/>
  <outline>
    <contour>
      <point x="464" y="738" type="line"/>
      <point x="1184" y="738" type="line"/>
      <point x="1184" y="742" type="line"/>
      <point x="464" y="742" type="line"/>
    </contour>
    <contour>
      <point x="1000" y="1496" type="line"/>
      <point x="1000" y="1500" type="line"/>
      <point x="240" y="1500" type="line"/>
      <point x="240" y="1496" type="line"/>
      <point x="419" y="1496" type="line"/>
      <point x="81" y="4" type="line"/>
      <point x="-90" y="4" type="line"/>
      <point x="-90" y="0" type="line"/>
      <point x="670" y="0" type="line"/>
      <point x="670" y="4" type="line"/>
      <point x="511" y="4" type="line"/>
      <point x="849" y="1496" type="line"/>
    </contour>
    <contour>
      <point x="1860" y="1500" type="line"/>
      <point x="1100" y="1500" type="line"/>
      <point x="1100" y="1496" type="line"/>
      <point x="1259" y="1496" type="line"/>
      <point x="921" y="4" type="line"/>
      <point x="770" y="4" type="line"/>
      <point x="770" y="0" type="line"/>
      <point x="1530" y="0" type="line"/>
      <point x="1530" y="4" type="line"/>
      <point x="1351" y="4" type="line"/>
      <point x="1689" y="1496" type="line"/>
      <point x="1860" y="1496" type="line"/>
    </contour>
  </outline>
</glyph>
<glyph name="M" format="2">
  <advance width="1899"/>
  <unicode hex="004D"/>
  <anchor x="721" y="0" name="bottom"/>
  <anchor x="1097" y="1500" name="top"/>
  <outline>
    <contour>
      <point x="632" y="-20" type="line"/>
      <point x="642" y="-20" type="line"/>
      <point x="1492" y="1500" type="line"/>
      <point x="1488" y="1500" type="line"/>
      <point x="978" y="588" type="line"/>
      <point x="828" y="1500" type="line"/>
      <point x="396" y="1500" type="line"/>
    </contour>
    <contour>
      <point x="-60" y="0" type="line"/>
      <point x="264" y="0" type="line"/>
      <point x="264" y="4" type="line"/>
      <point x="-60" y="4" type="line"/>
    </contour>
    <contour>
      <point x="72" y="0" type="line"/>
      <point x="76" y="0" type="line"/>
      <point x="398" y="1500" type="line"/>
      <point x="240" y="1500" type="line"/>
      <point x="240" y="1496" type="line"/>
      <point x="394" y="1496" type="line"/>
    </contour>
    <contour>
      <point x="1030" y="0" type="line"/>
      <point x="1760" y="0" type="line"/>
      <point x="1760" y="4" type="line"/>
      <point x="1030" y="4" type="line"/>
    </contour>
    <contour>
      <point x="1170" y="0" type="line"/>
      <point x="1600" y="0" type="line"/>
      <point x="1920" y="1496" type="line"/>
      <point x="2040" y="1496" type="line"/>
      <point x="2040" y="1500" type="line"/>
      <point x="1490" y="1500" type="line"/>
    </contour>
  </outline>
</glyph>
<glyph name="N" format="2">
  <advance width="1539"/>
  <unicode hex="004E"/>
  <anchor x="656" y="0" name="bottom"/>
  <anchor x="966" y="1500" name="top"/>
  <outline>
    <contour>
      <point x="1124" y="-20" type="line"/>
      <point x="1154" y="-20" type="line"/>
      <point x="1500" y="1500" type="line"/>
      <point x="1496" y="1500" type="line"/>
      <point x="1318" y="718" type="line"/>
      <point x="950" y="1500" type="line"/>
      <point x="440" y="1500" type="line"/>
    </contour>
    <contour>
      <point x="-80" y="0" type="line"/>
      <point x="344" y="0" type="line"/>
      <point x="344" y="4" type="line"/>
      <point x="-80" y="4" type="line"/>
    </contour>
    <contour>
      <point x="108" y="0" type="line"/>
      <point x="112" y="0" type="line"/>
      <point x="444" y="1500" type="line"/>
      <point x="240" y="1500" type="line"/>
      <point x="240" y="1496" type="line"/>
      <point x="440" y="1496" type="line"/>
    </contour>
    <contour>
      <point x="1256" y="1496" type="line"/>
      <point x="1730" y="1496" type="line"/>
      <point x="1730" y="1500" type="line"/>
      <point x="1256" y="1500" type="line"/>
    </contour>
  </outline>
</glyph>
<glyph name="R" format="2">
  <advance width="1639"/>
  <unicode hex="0052"/>
  <anchor x="746" y="0" name="bottom"/>
  <anchor x="316" y="0" name="cedilla"/>
  <anchor x="916" y="1500" name="top"/>
  <outline>
    <contour>
      <point x="110" y="0" type="line"/>
      <point x="540" y="0" type="line"/>
      <point x="890" y="1500" type="line"/>
      <point x="460" y="1500" type="line"/>
    </contour>
    <contour>
      <point x="-70" y="0" type="line"/>
      <point x="760" y="0" type="line"/>
      <point x="760" y="4" type="line"/>
      <point x="-70" y="4" type="line"/>
    </contour>
    <contour>
      <point x="1190" y="-20" type="curve" smooth="yes"/>
      <point x="1302" y="-20"/>
      <point x="1398" y="-4"/>
      <point x="1470" y="24" type="curve"/>
      <point x="1468" y="26" type="line"/>
      <point x="1430" y="12"/>
      <point x="1388" y="2"/>
      <point x="1366" y="2" type="curve" smooth="yes"/>
      <point x="1160" y="2"/>
      <point x="1676" y="772"/>
      <point x="890" y="772" type="curve" smooth="yes"/>
      <point x="660" y="772" type="line"/>
      <point x="660" y="768" type="line"/>
      <point x="750" y="768" type="line" smooth="yes"/>
      <point x="1242" y="768"/>
      <point x="544" y="-20"/>
    </contour>
    <contour>
      <point x="660" y="768" type="line"/>
      <point x="870" y="768" type="line" smooth="yes"/>
      <point x="1272" y="768"/>
      <point x="1560" y="920"/>
      <point x="1560" y="1200" type="curve" smooth="yes"/>
      <point x="1560" y="1420"/>
      <point x="1332" y="1500"/>
      <point x="1070" y="1500" type="curve" smooth="yes"/>
      <point x="260" y="1500" type="line"/>
      <point x="260" y="1496" type="line"/>
      <point x="930" y="1496" type="line" smooth="yes"/>
      <point x="1090" y="1496"/>
      <point x="1130" y="1378"/>
      <point x="1130" y="1280" type="curve" smooth="yes"/>
      <point x="1130" y="1122"/>
      <point x="1062" y="772"/>
      <point x="770" y="772" type="curve" smooth="yes"/>
      <point x="660" y="772" type="line"/>
    </contour>
  </outline>
</glyph>
<glyph name="e" format="2">
  <advance width="1063"/>
  <unicode hex="0065"/>
  <anchor x="435" y="0" name="bottom"/>
  <anchor x="551" y="0" name="ogonek"/>
  <anchor x="685" y="920" name="top"/>
  <outline>
    <contour>
      <point x="397" y="-20" type="curve" smooth="yes"/>
      <point x="650" y="-20"/>
      <point x="801" y="128"/>
      <point x="909" y="259" type="curve"/>
      <point x="906" y="261" type="line"/>
      <point x="754" y="69"/>
      <point x="586" y="-8"/>
      <point x="457" y="-8" type="curve" smooth="yes"/>
      <point x="404" y="-8"/>
      <point x="379" y="7"/>
      <point x="379" y="63" type="curve" smooth="yes"/>
      <point x="379" y="276"/>
      <point x="609" y="932"/>
      <point x="747" y="932" type="curve" smooth="yes"/>
      <point x="759" y="932"/>
      <point x="763" y="925"/>
      <point x="763" y="911" type="curve" smooth="yes"/>
      <point x="763" y="843"/>
      <point x="593" y="388"/>
      <point x="405" y="378" type="curve"/>
      <point x="405" y="377" type="line"/>
      <point x="868" y="397"/>
      <point x="1043" y="528"/>
      <point x="1043" y="698" type="curve" smooth="yes"/>
      <point x="1043" y="833"/>
      <point x="905" y="940"/>
      <point x="671" y="940" type="curve" smooth="yes"/>
      <point x="330" y="940"/>
      <point x="40" y="650"/>
      <point x="40" y="300" type="curve" smooth="yes"/>
      <point x="40" y="130"/>
      <point x="155" y="-20"/>
    </contour>
  </outline>
</glyph>
<glyph name="h" format="2">
  <advance width="1236"/>
  <unicode hex="0068"/>
  <anchor x="548" y="0" name="bottom"/>
  <anchor x="186" y="0" name="cedilla"/>
  <anchor x="881" y="1390" name="top"/>
  <outline>
    <contour>
      <point x="0" y="0" type="line"/>
      <point x="365" y="0" type="line"/>
      <point x="765" y="1500" type="line"/>
      <point x="255" y="1500" type="line"/>
      <point x="255" y="1496" type="line"/>
      <point x="400" y="1496" type="line"/>
    </contour>
    <contour>
      <point x="775" y="-20" type="curve" smooth="yes"/>
      <point x="922" y="-20"/>
      <point x="1058" y="77"/>
      <point x="1169" y="329" type="curve"/>
      <point x="1165" y="330" type="line"/>
      <point x="1088" y="159"/>
      <point x="994" y="56"/>
      <point x="947" y="56" type="curve" smooth="yes"/>
      <point x="934" y="56"/>
      <point x="927" y="63"/>
      <point x="927" y="86" type="curve" smooth="yes"/>
      <point x="927" y="96"/>
      <point x="931" y="116"/>
      <point x="934" y="126" type="curve" smooth="yes"/>
      <point x="1081" y="639" type="line" smooth="yes"/>
      <point x="1133" y="819"/>
      <point x="1059" y="939"/>
      <point x="906" y="939" type="curve" smooth="yes"/>
      <point x="699" y="939"/>
      <point x="516" y="569"/>
      <point x="431" y="266" type="curve"/>
      <point x="436" y="266" type="line"/>
      <point x="533" y="623"/>
      <point x="702" y="841"/>
      <point x="738" y="841" type="curve" smooth="yes"/>
      <point x="760" y="841"/>
      <point x="767" y="812"/>
      <point x="723" y="656" type="curve" smooth="yes"/>
      <point x="615" y="274" type="line" smooth="yes"/>
      <point x="606" y="241"/>
      <point x="596" y="195"/>
      <point x="596" y="164" type="curve" smooth="yes"/>
      <point x="596" y="58"/>
      <point x="661" y="-20"/>
    </contour>
  </outline>
</glyph>
<glyph name="i" format="2">
  <advance width="705"/>
  <unicode hex="0069"/>
  <anchor x="275" y="0" name="bottom"/>
  <anchor x="275" y="0" name="cedilla"/>
  <outline>
    <contour>
      <point x="267" y="-20" type="curve" smooth="yes"/>
      <point x="450" y="-20"/>
      <point x="538" y="119"/>
      <point x="639" y="329" type="curve"/>
      <point x="635" y="330" type="line"/>
      <point x="504" y="46"/>
      <point x="413" y="27"/>
      <point x="398" y="27" type="curve" smooth="yes"/>
      <point x="390" y="27"/>
      <point x="385" y="32"/>
      <point x="385" y="42" type="curve" smooth="yes"/>
      <point x="385" y="51"/>
      <point x="385.988" y="59.724"/>
      <point x="389" y="71" type="curve" smooth="yes"/>
      <point x="614" y="920" type="line"/>
      <point x="121" y="920" type="line"/>
      <point x="121" y="916" type="line"/>
      <point x="255" y="916" type="line"/>
      <point x="83" y="260" type="line" smooth="yes"/>
      <point x="77.225" y="237.976"/>
      <point x="62" y="184"/>
      <point x="62" y="134" type="curve" smooth="yes"/>
      <point x="62" y="38"/>
      <point x="113" y="-20"/>
    </contour>
    <contour>
      <point x="515" y="1079" type="curve" smooth="yes"/>
      <point x="641" y="1079"/>
      <point x="736" y="1184"/>
      <point x="736" y="1300" type="curve" smooth="yes"/>
      <point x="736" y="1416"/>
      <point x="641" y="1520"/>
      <point x="515" y="1520" type="curve" smooth="yes"/>
      <point x="389" y="1520"/>
      <point x="296" y="1416"/>
      <point x="296" y="1300" type="curve" smooth="yes"/>
      <point x="296" y="1184"/>
      <point x="389" y="1079"/>
    </contour>
  </outline>
</glyph>
<glyph name="k" format="2">
  <advance width="1166"/>
  <unicode hex="006B"/>
  <anchor x="516" y="0" name="bottom"/>
  <anchor x="158" y="0" name="cedilla"/>
  <anchor x="946" y="920" name="top"/>
  <outline>
    <contour>
      <point x="0" y="0" type="line"/>
      <point x="353" y="0" type="line"/>
      <point x="765" y="1500" type="line"/>
      <point x="210" y="1500" type="line"/>
      <point x="210" y="1496" type="line"/>
      <point x="402" y="1496" type="line"/>
    </contour>
    <contour>
      <point x="706" y="-20" type="curve" smooth="yes"/>
      <point x="862" y="-20"/>
      <point x="953" y="99"/>
      <point x="1050" y="329" type="curve"/>
      <point x="1046" y="330" type="line"/>
      <point x="955" y="107"/>
      <point x="880" y="51"/>
      <point x="870" y="51" type="curve" smooth="yes"/>
      <point x="862" y="51"/>
      <point x="859" y="58"/>
      <point x="859" y="65" type="curve" smooth="yes"/>
      <point x="859" y="69"/>
      <point x="859.844" y="80.013"/>
      <point x="862" y="87" type="curve" smooth="yes"/>
      <point x="915" y="262" type="line" smooth="yes"/>
      <point x="976.222" y="460.357"/>
      <point x="783" y="598"/>
      <point x="644" y="598" type="curve" smooth="yes"/>
      <point x="557" y="598"/>
      <point x="494" y="514"/>
      <point x="453" y="380" type="curve"/>
      <point x="457" y="380" type="line"/>
      <point x="495" y="518"/>
      <point x="568" y="586"/>
      <point x="611" y="586" type="curve" smooth="yes"/>
      <point x="699" y="586"/>
      <point x="634.953" y="431.842"/>
      <point x="591" y="309" type="curve" smooth="yes"/>
      <point x="562" y="220" type="line" smooth="yes"/>
      <point x="551.212" y="186.891"/>
      <point x="539" y="142"/>
      <point x="539" y="107" type="curve" smooth="yes"/>
      <point x="539" y="17"/>
      <point x="622" y="-20"/>
    </contour>
    <contour>
      <point x="516" y="478" type="curve" smooth="yes"/>
      <point x="570" y="478"/>
      <point x="600.299" y="587.298"/>
      <point x="656" y="714" type="curve" smooth="yes"/>
      <point x="715.199" y="848.659"/>
      <point x="789" y="935"/>
      <point x="932" y="935" type="curve" smooth="yes"/>
      <point x="1059" y="935"/>
      <point x="1142" y="838"/>
      <point x="1142" y="747" type="curve"/>
      <point x="1144" y="747" type="line"/>
      <point x="1144" y="857"/>
      <point x="1041.8" y="932"/>
      <point x="950" y="932" type="curve" smooth="yes"/>
      <point x="834" y="932"/>
      <point x="764" y="845"/>
      <point x="764" y="748" type="curve" smooth="yes"/>
      <point x="764" y="632"/>
      <point x="833" y="558"/>
      <point x="953" y="558" type="curve" smooth="yes"/>
      <point x="1063" y="558"/>
      <point x="1146" y="637"/>
      <point x="1146" y="747" type="curve" smooth="yes"/>
      <point x="1146" y="841"/>
      <point x="1062" y="939"/>
      <point x="932" y="939" type="curve" smooth="yes"/>
      <point x="787" y="939"/>
      <point x="710.837" y="850.785"/>
      <point x="651" y="715" type="curve" smooth="yes"/>
      <point x="599" y="597"/>
      <point x="567" y="482"/>
      <point x="516" y="482" type="curve" smooth="yes"/>
      <point x="508" y="482"/>
      <point x="502" y="483"/>
      <point x="497" y="486" type="curve"/>
      <point x="497" y="482" type="line"/>
      <point x="501" y="480"/>
      <point x="507" y="478"/>
    </contour>
  </outline>
</glyph>
<glyph name="q" format="2">
  <advance width="1092"/>
  <unicode hex="0071"/>
  <anchor x="246" y="0" name="bottom"/>
  <anchor x="686" y="919" name="top"/>
  <outline>
    <contour>
      <point x="388" y="-500" type="line"/>
      <point x="745" y="-500" type="line"/>
      <point x="1132" y="940" type="line"/>
      <point x="765" y="900" type="line"/>
      <point x="685" y="613" type="line"/>
      <point x="663" y="516" type="line"/>
      <point x="649" y="462"/>
      <point x="644" y="445"/>
      <point x="628" y="387" type="curve"/>
    </contour>
    <contour>
      <point x="238" y="-500" type="line"/>
      <point x="908" y="-500" type="line"/>
      <point x="908" y="-496" type="line"/>
      <point x="238" y="-496" type="line"/>
    </contour>
    <contour>
      <point x="305" y="-20" type="curve" smooth="yes"/>
      <point x="575" y="-20"/>
      <point x="702" y="616"/>
      <point x="702" y="752" type="curve" smooth="yes"/>
      <point x="702" y="856"/>
      <point x="659" y="940"/>
      <point x="547" y="940" type="curve" smooth="yes"/>
      <point x="291" y="940"/>
      <point x="40" y="611"/>
      <point x="40" y="305" type="curve" smooth="yes"/>
      <point x="40" y="110"/>
      <point x="116" y="-20"/>
    </contour>
    <contour>
      <point x="445" y="77" type="curve" smooth="yes"/>
      <point x="415" y="77"/>
      <point x="405" y="112"/>
      <point x="405" y="157" type="curve" smooth="yes"/>
      <point x="405" y="367"/>
      <point x="563" y="837"/>
      <point x="663" y="837" type="curve" smooth="yes"/>
      <point x="683" y="837"/>
      <point x="698" y="813"/>
      <point x="698" y="758" type="curve" smooth="yes"/>
      <point x="698" y="528"/>
      <point x="533" y="77"/>
    </contour>
  </outline>
</glyph>
<glyph name="z" format="2">
  <advance width="1002"/>
  <unicode hex="007A"/>
  <anchor x="340" y="0" name="bottom"/>
  <anchor x="520" y="920" name="top"/>
  <outline>
    <contour>
      <point x="-80" y="-18" type="line"/>
      <point x="-12" y="40" type="line"/>
      <point x="900" y="938" type="line"/>
      <point x="890" y="934" type="line"/>
    </contour>
    <contour>
      <point x="-78" y="-20" type="line"/>
      <point x="-14" y="44"/>
      <point x="72" y="78"/>
      <point x="168" y="78" type="curve" smooth="yes"/>
      <point x="300" y="78"/>
      <point x="387" y="-20"/>
      <point x="539" y="-20" type="curve" smooth="yes"/>
      <point x="753" y="-20"/>
      <point x="972" y="200"/>
      <point x="972" y="420" type="curve" smooth="yes"/>
      <point x="972" y="532"/>
      <point x="874" y="614"/>
      <point x="783" y="614" type="curve" smooth="yes"/>
      <point x="683" y="614"/>
      <point x="598" y="532"/>
      <point x="598" y="432" type="curve" smooth="yes"/>
      <point x="598" y="341"/>
      <point x="686" y="252"/>
      <point x="772" y="252" type="curve" smooth="yes"/>
      <point x="870" y="252"/>
      <point x="970" y="330"/>
      <point x="970" y="420" type="curve"/>
      <point x="968" y="420" type="line"/>
      <point x="968" y="260"/>
      <point x="876" y="204"/>
      <point x="771" y="204" type="curve" smooth="yes"/>
      <point x="601" y="204"/>
      <point x="596" y="350"/>
      <point x="449" y="350" type="curve" smooth="yes"/>
      <point x="324" y="350"/>
      <point x="148" y="192"/>
      <point x="-80" y="-18" type="curve"/>
    </contour>
    <contour>
      <point x="-11" y="380" type="line"/>
      <point x="-6" y="380" type="line"/>
      <point x="41" y="575" type="line"/>
      <point x="93" y="545"/>
      <point x="183" y="510"/>
      <point x="271" y="510" type="curve" smooth="yes"/>
      <point x="432" y="510"/>
      <point x="682" y="758"/>
      <point x="900" y="938" type="curve"/>
      <point x="898" y="940" type="line"/>
      <point x="804" y="876"/>
      <point x="578" y="861"/>
      <point x="482" y="861" type="curve" smooth="yes"/>
      <point x="390" y="861"/>
      <point x="230" y="878"/>
      <point x="123" y="939" type="curve"/>
    </contour>
  </outline>
</glyph>
<glyph name="braceright" format="2">
  <advance width="743"/>
  <unicode hex="007D"/>
  <outline>
    <contour>
      <point x="-80" y="-300" type="line"/>
      <point x="250" y="-300"/>
      <point x="580" y="-160"/>
      <point x="580" y="118" type="curve" smooth="yes"/>
      <point x="580" y="292"/>
      <point x="524" y="320"/>
      <point x="524" y="446" type="curve" smooth="yes"/>
      <point x="524" y="548"/>
      <point x="654" y="590"/>
      <point x="714" y="610" type="curve"/>
      <point x="714" y="640" type="line"/>
      <point x="506" y="620"/>
      <point x="156" y="544"/>
      <point x="156" y="318" type="curve" smooth="yes"/>
      <point x="156" y="198"/>
      <point x="184" y="138"/>
      <point x="184" y="26" type="curve" smooth="yes"/>
      <point x="184" y="-160"/>
      <point x="44" y="-260"/>
      <point x="-80" y="-260" type="curve"/>
    </contour>
    <contour>
      <point x="714" y="620" type="curve"/>
      <point x="714" y="650" type="line"/>
      <point x="654" y="670"/>
      <point x="614" y="688"/>
      <point x="614" y="770" type="curve" smooth="yes"/>
      <point x="614" y="896"/>
      <point x="874" y="1026"/>
      <point x="874" y="1280" type="curve" smooth="yes"/>
      <point x="874" y="1498"/>
      <point x="670" y="1560"/>
      <point x="340" y="1560" type="curve"/>
      <point x="340" y="1520" type="line"/>
      <point x="464" y="1520"/>
      <point x="488" y="1438"/>
      <point x="488" y="1352" type="curve" smooth="yes"/>
      <point x="488" y="1200"/>
      <point x="300" y="1060"/>
      <point x="300" y="860" type="curve" smooth="yes"/>
      <point x="300" y="674"/>
      <point x="506" y="640"/>
    </contour>
  </outline>
</glyph>
<glyph name="cent" format="2">
  <advance width="1035"/>
  <unicode hex="00A2"/>
  <anchor x="401" y="0" name="bottom"/>
  <anchor x="701" y="920" name="top"/>
  <outline>
    <contour>
      <point x="397" y="-20" type="curve" smooth="yes"/>
      <point x="649" y="-20"/>
      <point x="800" y="128"/>
      <point x="909" y="259" type="curve"/>
      <point x="907" y="261" type="line"/>
      <point x="803" y="136"/>
      <point x="654" y="-1"/>
      <point x="469" y="-1" type="curve" smooth="yes"/>
      <point x="416" y="-1"/>
      <point x="379" y="29"/>
      <point x="379" y="102" type="curve" smooth="yes"/>
      <point x="379" y="330"/>
      <point x="525" y="917"/>
      <point x="803" y="917" type="curve" smooth="yes"/>
      <point x="892" y="917"/>
      <point x="1031" y="825"/>
      <point x="1031" y="690" type="curve"/>
      <point x="1033" y="690" type="line"/>
      <point x="1033" y="780"/>
      <point x="934" y="845"/>
      <point x="847" y="845" type="curve" smooth="yes"/>
      <point x="736" y="845"/>
      <point x="653" y="765"/>
      <point x="653" y="660" type="curve" smooth="yes"/>
      <point x="653" y="550"/>
      <point x="742" y="496"/>
      <point x="842" y="496" type="curve" smooth="yes"/>
      <point x="950" y="496"/>
      <point x="1035" y="579"/>
      <point x="1035" y="690" type="curve" smooth="yes"/>
      <point x="1035" y="828"/>
      <point x="897" y="940"/>
      <point x="703" y="940" type="curve" smooth="yes"/>
      <point x="341" y="940"/>
      <point x="40" y="590"/>
      <point x="40" y="290" type="curve" smooth="yes"/>
      <point x="40" y="90"/>
      <point x="175" y="-20"/>
    </contour>
    <contour>
      <point x="384" y="-170" type="line"/>
      <point x="388" y="-170" type="line"/>
      <point x="728" y="1110" type="line"/>
      <point x="724" y="1110" type="line"/>
    </contour>
  </outline>
</glyph>
<glyph name="ordfeminine" format="2">
  <advance width="705"/>
  <unicode hex="00AA"/>
  <anchor x="635.6" y="964" name="bottom"/>
  <anchor x="965.6" y="964" name="ogonek"/>
  <anchor x="857.6" y="1516" name="top"/>
  <outline>
    <contour>
      <point x="629" y="952" type="curve" smooth="yes"/>
      <point x="791" y="952"/>
      <point x="867.2" y="1339.6"/>
      <point x="867.2" y="1415.2" type="curve" smooth="yes"/>
      <point x="867.2" y="1477.6"/>
      <point x="841.4" y="1528"/>
      <point x="774.2" y="1528" type="curve" smooth="yes"/>
      <point x="620.6" y="1528"/>
      <point x="470" y="1330.6"/>
      <point x="470" y="1147" type="curve" smooth="yes"/>
      <point x="470" y="1030"/>
      <point x="515.6" y="952"/>
    </contour>
    <contour>
      <point x="713" y="1010.2" type="curve" smooth="yes"/>
      <point x="695" y="1010.2"/>
      <point x="689" y="1031.2"/>
      <point x="689" y="1058.2" type="curve" smooth="yes"/>
      <point x="689" y="1184.2"/>
      <point x="783.8" y="1466.2"/>
      <point x="843.8" y="1466.2" type="curve" smooth="yes"/>
      <point x="855.8" y="1466.2"/>
      <point x="864.8" y="1451.8"/>
      <point x="864.8" y="1418.8" type="curve" smooth="yes"/>
      <point x="864.8" y="1280.8"/>
      <point x="765.8" y="1010.2"/>
    </contour>
    <contour>
      <point x="912.8" y="952" type="curve" smooth="yes"/>
      <point x="1022.6" y="952"/>
      <point x="1075.4" y="1035.4"/>
      <point x="1136" y="1161.4" type="curve"/>
      <point x="1133.6" y="1162" type="line"/>
      <point x="1055" y="991.6"/>
      <point x="1000.4" y="980.2"/>
      <point x="991.4" y="980.2" type="curve" smooth="yes"/>
      <point x="986.6" y="980.2"/>
      <point x="983.6" y="983.2"/>
      <point x="983.6" y="989.2" type="curve" smooth="yes"/>
      <point x="983.6" y="994.6"/>
      <point x="984.2" y="1000"/>
      <point x="986" y="1006.6" type="curve" smooth="yes"/>
      <point x="1121" y="1516" type="line"/>
      <point x="899.6" y="1516" type="line"/>
      <point x="860.6" y="1357.6" type="line"/>
      <point x="847.4" y="1286.2" type="line"/>
      <point x="819.8" y="1188.4" type="line"/>
      <point x="800" y="1096" type="line" smooth="yes"/>
      <point x="798.2" y="1087.6"/>
      <point x="795.8" y="1075"/>
      <point x="795.8" y="1055.2" type="curve" smooth="yes"/>
      <point x="795.8" y="995.2"/>
      <point x="830.6" y="952"/>
    </contour>
  </outline>
</glyph>
<glyph name="registered" format="2">
  <advance width="1739"/>
  <unicode hex="00AE"/>
  <anchor x="903.6" y="296" name="bottom"/>
  <anchor x="645.6" y="296" name="cedilla"/>
  <anchor x="1005.6" y="1196" name="top"/>
  <outline>
    <contour>
      <point x="840" y="-20" type="curve" smooth="yes"/>
      <point x="1306" y="-20"/>
      <point x="1750" y="424"/>
      <point x="1750" y="890" type="curve" smooth="yes"/>
      <point x="1750" y="1276"/>
      <point x="1466" y="1520"/>
      <point x="1080" y="1520" type="curve" smooth="yes"/>
      <point x="614" y="1520"/>
      <point x="170" y="1076"/>
      <point x="170" y="610" type="curve" smooth="yes"/>
      <point x="170" y="224"/>
      <point x="454" y="-20"/>
    </contour>
    <contour>
      <point x="414" y="296" type="line"/>
      <point x="912" y="296" type="line"/>
      <point x="912" y="298.4" type="line"/>
      <point x="414" y="298.4" type="line"/>
    </contour>
    <contour>
      <point x="522" y="296" type="line"/>
      <point x="780" y="296" type="line"/>
      <point x="990" y="1196" type="line"/>
      <point x="732" y="1196" type="line"/>
    </contour>
    <contour>
      <point x="1170" y="284" type="curve" smooth="yes"/>
      <point x="1237.2" y="284"/>
      <point x="1294.8" y="293.6"/>
      <point x="1338" y="310.4" type="curve"/>
      <point x="1336.8" y="311.6" type="line"/>
      <point x="1314" y="303.2"/>
      <point x="1288.8" y="297.2"/>
      <point x="1275.6" y="297.2" type="curve" smooth="yes"/>
      <point x="1152" y="297.2"/>
      <point x="1461.6" y="759.2"/>
      <point x="990" y="759.2" type="curve" smooth="yes"/>
      <point x="852" y="759.2" type="line"/>
      <point x="852" y="756.8" type="line"/>
      <point x="906" y="756.8" type="line" smooth="yes"/>
      <point x="1201.2" y="756.8"/>
      <point x="782.4" y="284"/>
    </contour>
    <contour>
      <point x="840" y="-16" type="curve" smooth="yes"/>
      <point x="456" y="-16"/>
      <point x="174" y="226"/>
      <point x="174" y="610" type="curve" smooth="yes"/>
      <point x="174" y="1074"/>
      <point x="618" y="1516"/>
      <point x="1080" y="1516" type="curve" smooth="yes"/>
      <point x="1464" y="1516"/>
      <point x="1746" y="1274"/>
      <point x="1746" y="890" type="curve" smooth="yes"/>
      <point x="1746" y="426"/>
      <point x="1302" y="-16"/>
    </contour>
    <contour>
      <point x="852" y="756.8" type="line"/>
      <point x="978" y="756.8" type="line" smooth="yes"/>
      <point x="1219.2" y="756.8"/>
      <point x="1392" y="848"/>
      <point x="1392" y="1016" type="curve" smooth="yes"/>
      <point x="1392" y="1148"/>
      <point x="1255.2" y="1196"/>
      <point x="1098" y="1196" type="curve" smooth="yes"/>
      <point x="612" y="1196" type="line"/>
      <point x="612" y="1193.6" type="line"/>
      <point x="1014" y="1193.6" type="line" smooth="yes"/>
      <point x="1110" y="1193.6"/>
      <point x="1134" y="1122.8"/>
      <point x="1134" y="1064" type="curve" smooth="yes"/>
      <point x="1134" y="969.2"/>
      <point x="1093.2" y="759.2"/>
      <point x="918" y="759.2" type="curve" smooth="yes"/>
      <point x="852" y="759.2" type="line"/>
    </contour>
  </outline>
</glyph>
<glyph name="paragraph" format="2">
  <advance width="1422"/>
  <unicode hex="00B6"/>
  <outline>
    <contour>
      <point x="505" y="-300" type="line"/>
      <point x="1056" y="-300" type="line"/>
      <point x="1056" y="-296" type="line"/>
      <point x="848" y="-296" type="line"/>
      <point x="1261" y="1496" type="line"/>
      <point x="1461" y="1496" type="line"/>
      <point x="1461" y="1500" type="line"/>
      <point x="981" y="1500" type="line" smooth="yes"/>
      <point x="530" y="1500"/>
      <point x="171" y="1229"/>
      <point x="171" y="799" type="curve" smooth="yes"/>
      <point x="171" y="479"/>
      <point x="460" y="379"/>
      <point x="701" y="379" type="curve" smooth="yes"/>
      <point x="862" y="379" type="line"/>
      <point x="706" y="-296" type="line"/>
      <point x="505" y="-296" type="line"/>
    </contour>
    <contour>
      <point x="710" y="-296" type="line"/>
      <point x="1123" y="1496" type="line"/>
      <point x="1257" y="1496" type="line"/>
      <point x="844" y="-296" type="line"/>
    </contour>
  </outline>
</glyph>
<glyph name="onehalf" format="2">
  <advance width="1339"/>
  <unicode hex="00BD"/>
  <outline>
    <contour>
      <point x="-34" y="-200" type="line"/>
      <point x="-30" y="-200" type="line"/>
      <point x="1272" y="1300" type="line"/>
      <point x="1268" y="1300" type="line"/>
    </contour>
    <contour>
      <point x="156" y="712" type="line"/>
      <point x="678" y="712" type="line"/>
      <point x="678" y="714.4" type="line"/>
      <point x="156" y="714.4" type="line"/>
    </contour>
    <contour>
      <point x="634" y="-202" type="line"/>
      <point x="1322.8" y="-202" type="line"/>
      <point x="1403.2" y="140" type="line"/>
      <point x="1400.8" y="140" type="line"/>
      <point x="1378.6" y="50" type="line"/>
      <point x="823.6" y="50" type="line"/>
      <point x="1030.6" y="176.6" type="line" smooth="yes"/>
      <point x="1150.6" y="250.4"/>
      <point x="1457.8" y="362.6"/>
      <point x="1457.8" y="524.6" type="curve" smooth="yes"/>
      <point x="1457.8" y="650.6"/>
      <point x="1331.2" y="710"/>
      <point x="1186" y="710" type="curve" smooth="yes"/>
      <point x="976.6" y="710"/>
      <point x="797.2" y="576.8"/>
      <point x="797.2" y="436.4" type="curve" smooth="yes"/>
      <point x="797.2" y="344"/>
      <point x="862" y="292.4"/>
      <point x="934" y="292.4" type="curve" smooth="yes"/>
      <point x="1018" y="292.4"/>
      <point x="1079.2" y="357.2"/>
      <point x="1079.2" y="435.2" type="curve" smooth="yes"/>
      <point x="1079.2" y="513.2"/>
      <point x="1022.2" y="556.4"/>
      <point x="944.8" y="556.4" type="curve" smooth="yes"/>
      <point x="875.2" y="556.4"/>
      <point x="798.4" y="496.4"/>
      <point x="798.4" y="436.4" type="curve"/>
      <point x="799.6" y="436.4" type="line"/>
      <point x="799.6" y="585.2"/>
      <point x="995.2" y="693.8"/>
      <point x="1096" y="693.8" type="curve" smooth="yes"/>
      <point x="1181.2" y="693.8"/>
      <point x="1192" y="603.8"/>
      <point x="1192" y="524" type="curve" smooth="yes"/>
      <point x="1192" y="393.2"/>
      <point x="1112.8" y="230"/>
      <point x="968.2" y="141.2" type="curve" smooth="yes"/>
      <point x="673.6" y="-40" type="line"/>
    </contour>
    <contour>
      <point x="288" y="712" type="line"/>
      <point x="546" y="712" type="line"/>
      <point x="750" y="1612" type="line"/>
      <point x="350.4" y="1612" type="line"/>
      <point x="350.4" y="1609.6" type="line"/>
      <point x="490.8" y="1609.6" type="line"/>
    </contour>
  </outline>
</glyph>
<glyph name="multiply" format="2">
  <advance width="862.65617"/>
  <unicode hex="00D7"/>
  <outline>
    <contour>
      <point x="142.827" y="480.328" type="line"/>
      <point x="721.95" y="1059.451" type="line"/>
      <point x="719.121" y="1062.279" type="line"/>
      <point x="139.998" y="483.156" type="line"/>
    </contour>
    <contour>
      <point x="719.828" y="478.914" type="line"/>
      <point x="722.657" y="481.742" type="line"/>
      <point x="143.534" y="1060.865" type="line"/>
      <point x="140.705" y="1058.037" type="line"/>
    </contour>
  </outline>
</glyph>
<glyph name="Oslash" format="2">
  <advance width="1579"/>
  <unicode hex="00D8"/>
  <outline>
    <contour>
      <point x="120" y="-200" type="line"/>
      <point x="126" y="-200" type="line"/>
      <point x="1420" y="1660" type="line"/>
      <point x="1414" y="1660" type="line"/>
    </contour>
    <component base="O"/>
  </outline>
</glyph>
<glyph name="germandbls" format="2">
  <advance width="1701"/>
  <unicode hex="00DF"/>
  <outline>
    <contour>
      <point x="130" y="0" type="line"/>
      <point x="550" y="0" type="line"/>
      <point x="770" y="962" type="line" smooth="yes"/>
      <point x="832" y="1232"/>
      <point x="898" y="1516"/>
      <point x="1186" y="1516" type="curve" smooth="yes"/>
      <point x="1274" y="1516"/>
      <point x="1340" y="1406"/>
      <point x="1340" y="1262" type="curve" smooth="yes"/>
      <point x="1340" y="1094"/>
      <point x="1284" y="814"/>
      <point x="1026" y="814" type="curve"/>
      <point x="1026" y="810" type="line"/>
      <point x="1428" y="810"/>
      <point x="1772" y="942"/>
      <point x="1772" y="1202" type="curve" smooth="yes"/>
      <point x="1772" y="1448"/>
      <point x="1472" y="1520"/>
      <point x="1206" y="1520" type="curve" smooth="yes"/>
      <point x="760" y="1520"/>
      <point x="446" y="1366"/>
      <point x="360" y="982" type="curve" smooth="yes"/>
    </contour>
    <contour>
      <point x="-50" y="0" type="line"/>
      <point x="730" y="0" type="line"/>
      <point x="730" y="4" type="line"/>
      <point x="-50" y="4" type="line"/>
    </contour>
    <contour>
      <point x="992" y="-20" type="curve" smooth="yes"/>
      <point x="1274" y="-20"/>
      <point x="1642" y="100"/>
      <point x="1642" y="480" type="curve" smooth="yes"/>
      <point x="1642" y="740"/>
      <point x="1388" y="812"/>
      <point x="1026" y="812" type="curve"/>
      <point x="1026" y="808" type="line"/>
      <point x="1144" y="808"/>
      <point x="1220" y="688"/>
      <point x="1220" y="500" type="curve" smooth="yes"/>
      <point x="1220" y="312"/>
      <point x="1150" y="-12"/>
      <point x="972" y="-12" type="curve" smooth="yes"/>
      <point x="798" y="-12"/>
      <point x="698" y="132"/>
      <point x="700" y="306" type="curve"/>
      <point x="726" y="240"/>
      <point x="796" y="180"/>
      <point x="898" y="180" type="curve" smooth="yes"/>
      <point x="996" y="180"/>
      <point x="1118" y="266"/>
      <point x="1118" y="370" type="curve" smooth="yes"/>
      <point x="1118" y="482"/>
      <point x="1030" y="562"/>
      <point x="910" y="562" type="curve" smooth="yes"/>
      <point x="780" y="562"/>
      <point x="696" y="444"/>
      <point x="696" y="312" type="curve" smooth="yes"/>
      <point x="696" y="148"/>
      <point x="774" y="-20"/>
    </contour>
  </outline>
</glyph>
<glyph name="divide" format="2">
  <advance width="1119"/>
  <unicode hex="00F7"/>
  <outline>
    <contour>
      <point x="561.75" y="930" type="curve" smooth="yes"/>
      <point x="660.75" y="930"/>
      <point x="740.25" y="1011"/>
      <point x="740.25" y="1110" type="curve" smooth="yes"/>
      <point x="740.25" y="1209"/>
      <point x="660.75" y="1290"/>
      <point x="561.75" y="1290" type="curve" smooth="yes"/>
      <point x="462.75" y="1290"/>
      <point x="378.75" y="1209"/>
      <point x="378.75" y="1110" type="curve" smooth="yes"/>
      <point x="378.75" y="1011"/>
      <point x="462.75" y="930"/>
    </contour>
    <contour>
      <point x="561.75" y="220" type="curve" smooth="yes"/>
      <point x="660.75" y="220"/>
      <point x="740.25" y="301"/>
      <point x="740.25" y="400" type="curve" smooth="yes"/>
      <point x="740.25" y="499"/>
      <point x="660.75" y="580"/>
      <point x="561.75" y="580" type="curve" smooth="yes"/>
      <point x="462.75" y="580"/>
      <point x="378.75" y="499"/>
      <point x="378.75" y="400" type="curve" smooth="yes"/>
      <point x="378.75" y="301"/>
      <point x="462.75" y="220"/>
    </contour>
    <contour>
      <point x="100" y="768" type="line"/>
      <point x="1020" y="768" type="line"/>
      <point x="1020" y="772" type="line"/>
      <point x="100" y="772" type="line"/>
    </contour>
  </outline>
</glyph>
<glyph name="oslash" format="2">
  <advance width="1128"/>
  <unicode hex="00F8"/>
  <outline>
    <contour>
      <point x="-115" y="-246.452" type="line"/>
      <point x="-109" y="-246.452" type="line"/>
      <point x="1185" y="1157.55" type="line"/>
      <point x="1179" y="1157.55" type="line"/>
    </contour>
    <component base="o"/>
  </outline>
</glyph>
<glyph name="idotless" format="2">
  <advance width="827"/>
  <unicode hex="0131"/>
  <anchor x="308" y="0" name="bottom"/>
  <anchor x="459" y="0" name="ogonek"/>
  <anchor x="472" y="920" name="top"/>
  <outline>
    <contour>
      <point x="332" y="-20" type="curve" smooth="yes"/>
      <point x="554" y="-20"/>
      <point x="712" y="126"/>
      <point x="788" y="326" type="curve"/>
      <point x="786" y="328" type="line"/>
      <point x="718" y="144"/>
      <point x="580" y="28"/>
      <point x="492" y="28" type="curve" smooth="yes"/>
      <point x="466" y="28"/>
      <point x="456" y="54"/>
      <point x="456" y="76" type="curve" smooth="yes"/>
      <point x="456" y="86"/>
      <point x="457" y="100"/>
      <point x="460" y="112" type="curve" smooth="yes"/>
      <point x="664" y="920" type="line"/>
      <point x="120" y="920" type="line"/>
      <point x="120" y="916" type="line"/>
      <point x="284" y="916" type="line"/>
      <point x="104" y="210" type="line" smooth="yes"/>
      <point x="101" y="198"/>
      <point x="100" y="176"/>
      <point x="100" y="166" type="curve" smooth="yes"/>
      <point x="100" y="26"/>
      <point x="178" y="-20"/>
    </contour>
  </outline>
</glyph>
<glyph name="Lslash" format="2">
  <advance width="1303"/>
  <unicode hex="0141"/>
  <outline>
    <contour>
      <point x="90" y="716" type="line"/>
      <point x="1001" y="1155" type="line"/>
      <point x="1001" y="1160" type="line"/>
      <point x="90" y="721" type="line"/>
    </contour>
    <component base="L"/>
  </outline>
</glyph>
<glyph name="Tbar" format="2">
  <advance width="1443"/>
  <unicode hex="0166"/>
  <outline>
    <contour>
      <point x="349.232" y="793" type="line"/>
      <point x="1220.264" y="793" type="line"/>
      <point x="1220.264" y="797" type="line"/>
      <point x="349.232" y="797" type="line"/>
    </contour>
    <component base="T" yOffset="8"/>
  </outline>
</glyph>
<glyph name="tbar" format="2">
  <advance width="744"/>
  <unicode hex="0167"/>
  <outline>
    <contour>
      <point x="27.355" y="608" type="line"/>
      <point x="690.549" y="608" type="line"/>
      <point x="690.549" y="612" type="line"/>
      <point x="27.355" y="612" type="line"/>
    </contour>
    <component base="t"/>
  </outline>
</glyph>
<glyph name="tildecomb" format="2">
  <unicode hex="0303"/>
  <anchor x="713" y="1500" name="_top"/>
  <outline>
    <contour>
      <point x="943" y="1620" type="curve" smooth="yes"/>
      <point x="1101" y="1620"/>
      <point x="1151" y="1744"/>
      <point x="1191" y="1934" type="curve"/>
      <point x="1187" y="1934" type="line"/>
      <point x="1147" y="1870"/>
      <point x="1101" y="1856"/>
      <point x="1055" y="1856" type="curve" smooth="yes"/>
      <point x="943" y="1856"/>
      <point x="843" y="2014"/>
      <point x="703" y="2014" type="curve" smooth="yes"/>
      <point x="545" y="2014"/>
      <point x="475" y="1870"/>
      <point x="435" y="1700" type="curve"/>
      <point x="439" y="1700" type="line"/>
      <point x="479" y="1764"/>
      <point x="525" y="1778"/>
      <point x="571" y="1778" type="curve" smooth="yes"/>
      <point x="697" y="1778"/>
      <point x="789" y="1620"/>
    </contour>
  </outline>
</glyph>
<glyph name="hungarumlautcomb" format="2">
  <unicode hex="030B"/>
  <anchor x="671" y="1500" name="_top"/>
  <outline>
    <contour>
      <point x="830" y="1683" type="line"/>
      <point x="1117" y="1718" type="line" smooth="yes"/>
      <point x="1277" y="1737"/>
      <point x="1333" y="1905"/>
      <point x="1267" y="2001" type="curve" smooth="yes"/>
      <point x="1213" y="2079"/>
      <point x="1035" y="2105"/>
      <point x="962" y="1956" type="curve" smooth="yes"/>
      <point x="829" y="1685" type="line"/>
    </contour>
    <contour>
      <point x="320" y="1683" type="line"/>
      <point x="607" y="1718" type="line" smooth="yes"/>
      <point x="767" y="1737"/>
      <point x="823" y="1905"/>
      <point x="757" y="2001" type="curve" smooth="yes"/>
      <point x="703" y="2079"/>
      <point x="525" y="2105"/>
      <point x="452" y="1956" type="curve" smooth="yes"/>
      <point x="319" y="1685" type="line"/>
    </contour>
  </outline>
</glyph>
<glyph name="dotbelowcomb" format="2">
  <unicode hex="0323"/>
  <anchor x="389" y="0" name="_bottom"/>
  <outline>
    <contour>
      <point x="320" y="-563" type="curve" smooth="yes"/>
      <point x="446" y="-563"/>
      <point x="540" y="-469"/>
      <point x="540" y="-343" type="curve" smooth="yes"/>
      <point x="540" y="-217"/>
      <point x="446" y="-123"/>
      <point x="320" y="-123" type="curve" smooth="yes"/>
      <point x="194" y="-123"/>
      <point x="100" y="-217"/>
      <point x="100" y="-343" type="curve" smooth="yes"/>
      <point x="100" y="-469"/>
      <point x="194" y="-563"/>
    </contour>
  </outline>
</glyph>
<glyph name="commaaccentcomb" format="2">
  <unicode hex="0326"/>
  <anchor x="358" y="0" name="_bottom"/>
  <outline>
    <contour>
      <point x="-11" y="-794" type="line"/>
      <point x="237" y="-794"/>
      <point x="515" y="-662"/>
      <point x="515" y="-398" type="curve" smooth="yes"/>
      <point x="515" y="-266"/>
      <point x="418" y="-179"/>
      <point x="308" y="-179" type="curve" smooth="yes"/>
      <point x="199" y="-179"/>
      <point x="105" y="-274"/>
      <point x="105" y="-374" type="curve" smooth="yes"/>
      <point x="105" y="-479"/>
      <point x="184" y="-560"/>
      <point x="309" y="-560" type="curve" smooth="yes"/>
      <point x="395" y="-560"/>
      <point x="514" y="-510"/>
      <point x="514" y="-398" type="curve"/>
      <point x="512" y="-398" type="line"/>
      <point x="512" y="-659"/>
      <point x="238" y="-790"/>
      <point x="-11" y="-790" type="curve"/>
    </contour>
  </outline>
</glyph>
<glyph name="cedillacomb" format="2">
  <unicode hex="0327"/>
  <anchor x="366" y="0" name="_bottom"/>
  <outline>
    <contour>
      <point x="47" y="-510" type="line"/>
      <point x="309" y="-510"/>
      <point x="553" y="-450"/>
      <point x="553" y="-290" type="curve" smooth="yes"/>
      <point x="553" y="-170"/>
      <point x="384" y="-148"/>
      <point x="203" y="-148" type="curve"/>
      <point x="352" y="2" type="line"/>
      <point x="348" y="2" type="line"/>
      <point x="119" y="-228" type="line"/>
      <point x="209" y="-228"/>
      <point x="243" y="-264"/>
      <point x="243" y="-330" type="curve" smooth="yes"/>
      <point x="243" y="-444"/>
      <point x="161" y="-506"/>
      <point x="47" y="-506" type="curve"/>
    </contour>
  </outline>
</glyph>
<glyph name="ogonekcomb" format="2">
  <unicode hex="0328"/>
  <anchor x="475" y="32" name="_ogonek"/>
  <outline>
    <contour>
      <point x="293" y="-442" type="curve" smooth="yes"/>
      <point x="495" y="-442"/>
      <point x="593" y="-312"/>
      <point x="623" y="-256" type="curve"/>
      <point x="621" y="-254" type="line"/>
      <point x="599" y="-296"/>
      <point x="527" y="-388"/>
      <point x="457" y="-388" type="curve" smooth="yes"/>
      <point x="419" y="-388"/>
      <point x="403" y="-334"/>
      <point x="403" y="-260" type="curve" smooth="yes"/>
      <point x="403" y="-134"/>
      <point x="475" y="12"/>
      <point x="537" y="54" type="curve"/>
      <point x="535" y="56" type="line"/>
      <point x="333" y="-4"/>
      <point x="43" y="-132"/>
      <point x="43" y="-292" type="curve" smooth="yes"/>
      <point x="43" y="-392"/>
      <point x="151" y="-442"/>
    </contour>
  </outline>
</glyph>
<glyph name="quoteleft" format="2">
  <advance width="725"/>
  <unicode hex="2018"/>
  <outline>
    <contour>
      <point x="531" y="792" type="curve" smooth="yes"/>
      <point x="667" y="792"/>
      <point x="785" y="910"/>
      <point x="785" y="1036" type="curve" smooth="yes"/>
      <point x="785" y="1167"/>
      <point x="686" y="1268"/>
      <point x="530" y="1268" type="curve" smooth="yes"/>
      <point x="422" y="1268"/>
      <point x="274" y="1206"/>
      <point x="274" y="1066" type="curve"/>
      <point x="276" y="1066" type="line"/>
      <point x="276" y="1392"/>
      <point x="619" y="1556"/>
      <point x="930" y="1556" type="curve"/>
      <point x="930" y="1560" type="line"/>
      <point x="620" y="1560"/>
      <point x="272" y="1396"/>
      <point x="272" y="1066" type="curve" smooth="yes"/>
      <point x="272" y="901"/>
      <point x="393" y="792"/>
    </contour>
  </outline>
</glyph>
<glyph name="guilsinglleft" format="2">
  <advance width="830"/>
  <unicode hex="2039"/>
  <outline>
    <contour>
      <point x="710" y="290" type="line"/>
      <point x="712" y="292" type="line"/>
      <point x="402" y="775" type="line"/>
      <point x="932" y="1258" type="line"/>
      <point x="930" y="1260" type="line"/>
      <point x="150" y="800" type="line"/>
      <point x="150" y="750" type="line"/>
    </contour>
  </outline>
</glyph>
<glyph name="uniF8E8" format="2">
  <advance width="1279"/>
  <unicode hex="F8E8"/>
  <anchor x="780.16" y="857.6" name="bottom"/>
  <anchor x="625.36" y="857.6" name="cedilla"/>
  <anchor x="841.36" y="1397.6" name="top"/>
  <outline>
    <contour>
      <point x="742" y="668" type="curve" smooth="yes"/>
      <point x="1021.6" y="668"/>
      <point x="1288" y="934.4"/>
      <point x="1288" y="1214" type="curve" smooth="yes"/>
      <point x="1288" y="1445.6"/>
      <point x="1117.6" y="1592"/>
      <point x="886" y="1592" type="curve" smooth="yes"/>
      <point x="606.4" y="1592"/>
      <point x="340" y="1325.6"/>
      <point x="340" y="1046" type="curve" smooth="yes"/>
      <point x="340" y="814.4"/>
      <point x="510.4" y="668"/>
    </contour>
    <contour>
      <point x="486.4" y="857.6" type="line"/>
      <point x="785.2" y="857.6" type="line"/>
      <point x="785.2" y="858.8" type="line"/>
      <point x="486.4" y="858.8" type="line"/>
    </contour>
    <contour>
      <point x="551.2" y="857.6" type="line"/>
      <point x="706" y="857.6" type="line"/>
      <point x="832" y="1397.6" type="line"/>
      <point x="677.2" y="1397.6" type="line"/>
    </contour>
    <contour>
      <point x="940" y="850.4" type="curve" smooth="yes"/>
      <point x="980.2" y="850.4"/>
      <point x="1015" y="856.4"/>
      <point x="1040.8" y="866" type="curve"/>
      <point x="1040.2" y="867.2" type="line"/>
      <point x="1026.4" y="861.8"/>
      <point x="1011.4" y="858.2"/>
      <point x="1003.6" y="858.2" type="curve" smooth="yes"/>
      <point x="929.2" y="858.2"/>
      <point x="1115.2" y="1135.4"/>
      <point x="832" y="1135.4" type="curve" smooth="yes"/>
      <point x="749.2" y="1135.4" type="line"/>
      <point x="749.2" y="1134.2" type="line"/>
      <point x="781.6" y="1134.2" type="line" smooth="yes"/>
      <point x="958.6" y="1134.2"/>
      <point x="707.2" y="850.4"/>
    </contour>
    <contour>
      <point x="742" y="670.4" type="curve" smooth="yes"/>
      <point x="511.6" y="670.4"/>
      <point x="342.4" y="815.6"/>
      <point x="342.4" y="1046" type="curve" smooth="yes"/>
      <point x="342.4" y="1324.4"/>
      <point x="608.8" y="1589.6"/>
      <point x="886" y="1589.6" type="curve" smooth="yes"/>
      <point x="1116.4" y="1589.6"/>
      <point x="1285.6" y="1444.4"/>
      <point x="1285.6" y="1214" type="curve" smooth="yes"/>
      <point x="1285.6" y="935.6"/>
      <point x="1019.2" y="670.4"/>
    </contour>
    <contour>
      <point x="749.2" y="1134.2" type="line"/>
      <point x="824.8" y="1134.2" type="line" smooth="yes"/>
      <point x="969.4" y="1134.2"/>
      <point x="1073.2" y="1188.8"/>
      <point x="1073.2" y="1289.6" type="curve" smooth="yes"/>
      <point x="1073.2" y="1368.8"/>
      <point x="991" y="1397.6"/>
      <point x="896.8" y="1397.6" type="curve" smooth="yes"/>
      <point x="605.2" y="1397.6" type="line"/>
      <point x="605.2" y="1396.4" type="line"/>
      <point x="846.4" y="1396.4" type="line" smooth="yes"/>
      <point x="904" y="1396.4"/>
      <point x="918.4" y="1353.8"/>
      <point x="918.4" y="1318.4" type="curve" smooth="yes"/>
      <point x="918.4" y="1261.4"/>
      <point x="893.8" y="1135.4"/>
      <point x="788.8" y="1135.4" type="curve" smooth="yes"/>
      <point x="749.2" y="1135.4" type="line"/>
    </contour>
  </outline>
</glyph>
<glyph name="uniF8E9" format="2">
  <advance width="1159"/>
  <unicode hex="F8E9"/>
  <anchor x="679.36" y="860" name="_top"/>
  <anchor x="679.36" y="860" name="ogonek"/>
  <anchor x="794.56" y="1400.36" name="top"/>
  <outline>
    <contour>
      <point x="682" y="668" type="curve" smooth="yes"/>
      <point x="961.6" y="668"/>
      <point x="1228" y="934.4"/>
      <point x="1228" y="1214" type="curve" smooth="yes"/>
      <point x="1228" y="1445.6"/>
      <point x="1057.6" y="1592"/>
      <point x="826" y="1592" type="curve" smooth="yes"/>
      <point x="546.4" y="1592"/>
      <point x="280" y="1325.6"/>
      <point x="280" y="1046" type="curve" smooth="yes"/>
      <point x="280" y="814.4"/>
      <point x="450.4" y="668"/>
    </contour>
    <contour>
      <point x="884.8" y="860" type="line"/>
      <point x="886" y="860" type="line"/>
      <point x="925.6" y="1029.2" type="line"/>
      <point x="924.4" y="1029.2" type="line"/>
      <point x="907" y="1002.8" type="line"/>
      <point x="877" y="961.4"/>
      <point x="847.6" y="929"/>
      <point x="818.8" y="905.6" type="curve"/>
    </contour>
    <contour>
      <point x="688" y="852.8" type="curve" smooth="yes"/>
      <point x="791.2" y="852.8"/>
      <point x="868" y="940.4"/>
      <point x="925.6" y="1029.2" type="curve"/>
      <point x="924.4" y="1029.2" type="line"/>
      <point x="859.6" y="930.8"/>
      <point x="782.8" y="858.8"/>
      <point x="708.4" y="858.8" type="curve" smooth="yes"/>
      <point x="633.4" y="858.8"/>
      <point x="626.8" y="920"/>
      <point x="626.8" y="986" type="curve" smooth="yes"/>
      <point x="626.8" y="1116.8"/>
      <point x="692.2" y="1400"/>
      <point x="824.8" y="1400" type="curve" smooth="yes"/>
      <point x="871" y="1400"/>
      <point x="940" y="1357.4"/>
      <point x="964" y="1230.8" type="curve"/>
      <point x="965.2" y="1230.8" type="line"/>
      <point x="944.8" y="1334"/>
      <point x="895.6" y="1407.2"/>
      <point x="796" y="1407.2" type="curve" smooth="yes"/>
      <point x="613.6" y="1407.2"/>
      <point x="468.4" y="1240.4"/>
      <point x="468.4" y="1043.6" type="curve" smooth="yes"/>
      <point x="468.4" y="926"/>
      <point x="556" y="852.8"/>
    </contour>
    <contour>
      <point x="682" y="670.4" type="curve" smooth="yes"/>
      <point x="451.6" y="670.4"/>
      <point x="282.4" y="815.6"/>
      <point x="282.4" y="1046" type="curve" smooth="yes"/>
      <point x="282.4" y="1324.4"/>
      <point x="548.8" y="1589.6"/>
      <point x="826" y="1589.6" type="curve" smooth="yes"/>
      <point x="1056.4" y="1589.6"/>
      <point x="1225.6" y="1444.4"/>
      <point x="1225.6" y="1214" type="curve" smooth="yes"/>
      <point x="1225.6" y="935.6"/>
      <point x="959.2" y="670.4"/>
    </contour>
    <contour>
      <point x="964" y="1230.8" type="line"/>
      <point x="965.2" y="1230.8" type="line"/>
      <point x="1003.6" y="1400" type="line"/>
      <point x="1001.8" y="1400" type="line"/>
      <point x="914.2" y="1350.8" type="line"/>
      <point x="935.2" y="1325.6"/>
      <point x="946" y="1299.8"/>
      <point x="958.6" y="1258.4" type="curve"/>
    </contour>
  </outline>
</glyph>
<glyph name="a.sc" format="2">
  <advance width="1242"/>
  <anchor x="328" y="0" name="bottom"/>
  <anchor x="788" y="0" name="ogonek"/>
  <anchor x="687.639" y="1012" name="top"/>
  <outline>
    <contour>
      <point x="153.334" y="270" type="line"/>
      <point x="742.334" y="270" type="line"/>
      <point x="743.258" y="274" type="line"/>
      <point x="154.258" y="274" type="line"/>
    </contour>
    <contour>
      <point x="822" y="1040" type="line"/>
      <point x="662" y="1040" type="line"/>
      <point x="-27" y="4" type="line"/>
      <point x="-129" y="4" type="line"/>
      <point x="-130" y="0" type="line"/>
      <point x="144" y="0" type="line"/>
      <point x="145" y="4" type="line"/>
      <point x="-23" y="4" type="line"/>
      <point x="392" y="627" type="line"/>
      <point x="521" y="4" type="line"/>
      <point x="349" y="4" type="line"/>
      <point x="348" y="0" type="line"/>
      <point x="1112" y="0" type="line"/>
      <point x="1113" y="4" type="line"/>
      <point x="1021" y="4" type="line"/>
    </contour>
  </outline>
</glyph>
<glyph name="dcroat.sc" format="2">
  <advance width="1547"/>
  <anchor x="553" y="0" name="bottom"/>
  <anchor x="553" y="0" name="cedilla"/>
  <anchor x="806.485" y="1020" name="top"/>
  <outline>
    <contour>
      <point x="125" y="548" type="line"/>
      <point x="805" y="548" type="line"/>
      <point x="805" y="552" type="line"/>
      <point x="125" y="552" type="line"/>
    </contour>
    <component base="d.sc"/>
  </outline>
</glyph>
<glyph name="four.osf" format="2">
  <advance width="1368"/>
  <outline>
    <contour>
      <point x="788" y="-1" type="line"/>
      <point x="1230" y="-1" type="line"/>
      <point x="1230" y="3" type="line"/>
      <point x="788" y="3" type="line"/>
    </contour>
    <contour>
      <point x="788" y="3" type="line"/>
      <point x="-21" y="3" type="line"/>
      <point x="743" y="696" type="line"/>
      <point x="465" y="-500" type="line"/>
      <point x="895" y="-500" type="line"/>
      <point x="1222" y="920" type="line"/>
      <point x="982" y="920" type="line"/>
      <point x="-30" y="-1" type="line"/>
      <point x="788" y="-1" type="line"/>
    </contour>
  </outline>
</glyph>
<glyph name="j.sc" format="2">
  <advance width="1227"/>
  <outline>
    <contour>
      <point x="247.383" y="-20" type="curve" smooth="yes"/>
      <point x="519.383" y="-20"/>
      <point x="793.557" y="180"/>
      <point x="873.8" y="311" type="curve"/>
      <point x="1037.49" y="1020" type="line"/>
      <point x="607.485" y="1020" type="line"/>
      <point x="487.435" y="500" type="line" smooth="yes"/>
      <point x="423.021" y="221"/>
      <point x="312.384" y="-7"/>
      <point x="190.384" y="-7" type="curve" smooth="yes"/>
      <point x="66.384" y="-7"/>
      <point x="-101.759" y="105"/>
      <point x="-59.048" y="290" type="curve"/>
      <point x="-61.048" y="290" type="line"/>
      <point x="-79.518" y="210"/>
      <point x="27.32" y="127"/>
      <point x="122.32" y="127" type="curve" smooth="yes"/>
      <point x="230.32" y="127"/>
      <point x="344.944" y="212"/>
      <point x="370.34" y="322" type="curve" smooth="yes"/>
      <point x="400.814" y="454"/>
      <point x="318.052" y="520"/>
      <point x="208.052" y="520" type="curve" smooth="yes"/>
      <point x="88.052" y="520"/>
      <point x="-32.112" y="424"/>
      <point x="-63.048" y="290" type="curve" smooth="yes"/>
      <point x="-100.218" y="129"/>
      <point x="23.383" y="-20"/>
    </contour>
    <contour>
      <point x="366.562" y="1016" type="line"/>
      <point x="1186.56" y="1016" type="line"/>
      <point x="1187.49" y="1020" type="line"/>
      <point x="367.485" y="1020" type="line"/>
    </contour>
  </outline>
</glyph>
<glyph name="k.sc" format="2">
  <advance width="1565"/>
  <anchor x="657" y="0" name="bottom"/>
  <anchor x="307" y="0" name="cedilla"/>
  <anchor x="960.485" y="1020" name="top"/>
  <outline>
    <contour>
      <point x="-45" y="0" type="line"/>
      <point x="585" y="0" type="line"/>
      <point x="586" y="4" type="line"/>
      <point x="517" y="4" type="line"/>
      <point x="625" y="474" type="line"/>
      <point x="610" y="461" type="line"/>
      <point x="768" y="4" type="line"/>
      <point x="666" y="4" type="line"/>
      <point x="665" y="0" type="line"/>
      <point x="1335" y="0" type="line"/>
      <point x="1336" y="4" type="line"/>
      <point x="1248" y="4" type="line"/>
      <point x="979" y="764" type="line"/>
      <point x="1308" y="1016" type="line"/>
      <point x="1471" y="1016" type="line"/>
      <point x="1471" y="1020" type="line"/>
      <point x="1090" y="1020" type="line"/>
      <point x="1090" y="1016" type="line"/>
      <point x="1302" y="1016" type="line"/>
      <point x="632" y="502" type="line"/>
      <point x="750" y="1016" type="line"/>
      <point x="900" y="1016" type="line"/>
      <point x="900" y="1020" type="line"/>
      <point x="190" y="1020" type="line"/>
      <point x="190" y="1016" type="line"/>
      <point x="320" y="1016" type="line"/>
      <point x="87" y="4" type="line"/>
      <point x="-44" y="4" type="line"/>
    </contour>
  </outline>
</glyph>
<glyph name="n.sc" format="2">
  <advance width="1398"/>
  <anchor x="475" y="0" name="bottom"/>
  <anchor x="810.485" y="1020" name="top"/>
  <outline>
    <contour>
      <point x="851.383" y="-20" type="line"/>
      <point x="952.383" y="-20" type="line"/>
      <point x="1192.49" y="1020" type="line"/>
      <point x="1188.49" y="1020" type="line"/>
      <point x="1071.67" y="514" type="line"/>
      <point x="852.485" y="1020" type="line"/>
      <point x="352.485" y="1020" type="line"/>
    </contour>
    <contour>
      <point x="-45" y="0" type="line"/>
      <point x="251" y="0" type="line"/>
      <point x="251.924" y="4" type="line"/>
      <point x="-44.076" y="4" type="line"/>
    </contour>
    <contour>
      <point x="116" y="0" type="line"/>
      <point x="120" y="0" type="line"/>
      <point x="355.485" y="1020" type="line"/>
      <point x="190.485" y="1020" type="line"/>
      <point x="189.562" y="1016" type="line"/>
      <point x="350.562" y="1016" type="line"/>
    </contour>
    <contour>
      <point x="1016.56" y="1016" type="line"/>
      <point x="1352.56" y="1016" type="line"/>
      <point x="1353.49" y="1020" type="line"/>
      <point x="1017.49" y="1020" type="line"/>
    </contour>
  </outline>
</glyph>
<glyph name="nine.tosf" format="2">
  <advance width="1400"/>
  <outline>
    <contour>
      <point x="69" y="-519.961" type="line"/>
      <point x="755" y="-519.961"/>
      <point x="1299" y="24.22"/>
      <point x="1299" y="503.933" type="curve" smooth="yes"/>
      <point x="1299" y="807.309"/>
      <point x="1093" y="940.036"/>
      <point x="831" y="940.036" type="curve" smooth="yes"/>
      <point x="489" y="940.036"/>
      <point x="119" y="712.504"/>
      <point x="119" y="352.245" type="curve" smooth="yes"/>
      <point x="119" y="86.791"/>
      <point x="345" y="-17.495"/>
      <point x="547" y="-17.495" type="curve" smooth="yes"/>
      <point x="891" y="-17.495"/>
      <point x="897" y="604.426"/>
      <point x="897" y="769.387" type="curve"/>
      <point x="893" y="769.387" type="line"/>
      <point x="893" y="583.569"/>
      <point x="871" y="37.492"/>
      <point x="623" y="37.492" type="curve" smooth="yes"/>
      <point x="575" y="37.492"/>
      <point x="559" y="79.207"/>
      <point x="559" y="181.596" type="curve" smooth="yes"/>
      <point x="559" y="378.79"/>
      <point x="677" y="936.244"/>
      <point x="817" y="936.244" type="curve" smooth="yes"/>
      <point x="869" y="936.244"/>
      <point x="893" y="852.815"/>
      <point x="893" y="769.387" type="curve"/>
      <point x="893" y="769.387" type="line"/>
      <point x="893" y="196.765"/>
      <point x="717" y="-516.169"/>
      <point x="69" y="-516.169" type="curve"/>
    </contour>
  </outline>
</glyph>
<glyph name="r.sc" format="2">
  <advance width="1597"/>
  <anchor x="753" y="0" name="bottom"/>
  <anchor x="341" y="0" name="cedilla"/>
  <anchor x="844.177" y="1010" name="top"/>
  <outline>
    <contour>
      <point x="1082" y="-20" type="curve" smooth="yes"/>
      <point x="1264" y="-20"/>
      <point x="1357" y="10"/>
      <point x="1398" y="48" type="curve"/>
      <point x="1397" y="51" type="line"/>
      <point x="1361" y="19"/>
      <point x="1308" y="5"/>
      <point x="1266" y="5" type="curve" smooth="yes"/>
      <point x="1210" y="5"/>
      <point x="1193" y="31"/>
      <point x="1193" y="72" type="curve" smooth="yes"/>
      <point x="1193" y="135"/>
      <point x="1233" y="231"/>
      <point x="1233" y="318" type="curve" smooth="yes"/>
      <point x="1233" y="423"/>
      <point x="1175" y="515"/>
      <point x="917" y="518" type="curve"/>
      <point x="1226" y="531"/>
      <point x="1358" y="605"/>
      <point x="1392" y="750" type="curve" smooth="yes"/>
      <point x="1429" y="910"/>
      <point x="1340" y="1010"/>
      <point x="980" y="1010" type="curve" smooth="yes"/>
      <point x="188" y="1010" type="line"/>
      <point x="187" y="1006" type="line"/>
      <point x="369" y="1006" type="line"/>
      <point x="138" y="4" type="line"/>
      <point x="-44" y="4" type="line"/>
      <point x="-45" y="0" type="line"/>
      <point x="687" y="0" type="line"/>
      <point x="688" y="4" type="line"/>
      <point x="568" y="4" type="line"/>
      <point x="799" y="1006" type="line"/>
      <point x="829" y="1006" type="line" smooth="yes"/>
      <point x="951" y="1006"/>
      <point x="982" y="888"/>
      <point x="950" y="750" type="curve" smooth="yes"/>
      <point x="916" y="603"/>
      <point x="839" y="519"/>
      <point x="717" y="519" type="curve" smooth="yes"/>
      <point x="640" y="519" type="line"/>
      <point x="637" y="512" type="line"/>
      <point x="665" y="512" type="line" smooth="yes"/>
      <point x="754" y="512"/>
      <point x="824" y="476"/>
      <point x="824" y="382" type="curve" smooth="yes"/>
      <point x="824" y="313"/>
      <point x="792" y="227"/>
      <point x="792" y="152" type="curve" smooth="yes"/>
      <point x="792" y="57"/>
      <point x="844" y="-20"/>
    </contour>
  </outline>
</glyph>
<glyph name="y.sc" format="2">
  <advance width="1390"/>
  <anchor x="506" y="0" name="bottom"/>
  <anchor x="819.485" y="1020" name="top"/>
  <outline>
    <contour>
      <point x="300" y="0" type="line"/>
      <point x="730" y="0" type="line"/>
      <point x="837.123" y="464" type="line"/>
      <point x="1291.56" y="1016" type="line"/>
      <point x="1286.56" y="1016" type="line"/>
      <point x="836.277" y="469" type="line"/>
      <point x="685.485" y="1020" type="line"/>
      <point x="195.485" y="1020" type="line"/>
      <point x="403.891" y="450" type="line"/>
    </contour>
    <contour>
      <point x="172" y="0" type="line"/>
      <point x="880" y="0" type="line"/>
      <point x="880.924" y="4" type="line"/>
      <point x="172.924" y="4" type="line"/>
    </contour>
    <contour>
      <point x="104.562" y="1016" type="line"/>
      <point x="824.562" y="1016" type="line"/>
      <point x="825.485" y="1020" type="line"/>
      <point x="105.485" y="1020" type="line"/>
    </contour>
    <contour>
      <point x="1124.56" y="1016" type="line"/>
      <point x="1394.56" y="1016" type="line"/>
      <point x="1395.49" y="1020" type="line"/>
      <point x="1125.49" y="1020" type="line"/>
    </contour>
  </outline>
</glyph>
<glyph name="z.sc" format="2">
  <advance width="1370"/>
  <anchor x="526" y="0" name="bottom"/>
  <anchor x="789.485" y="1020" name="top"/>
  <outline>
    <contour>
      <point x="-30" y="0" type="line"/>
      <point x="1060" y="0" type="line"/>
      <point x="1161.58" y="440" type="line"/>
      <point x="1157.58" y="440" type="line"/>
      <point x="1018.94" y="186"/>
      <point x="820.924" y="4"/>
      <point x="548.924" y="4" type="curve" smooth="yes"/>
      <point x="460.924" y="4" type="line"/>
      <point x="1274.56" y="1016" type="line"/>
      <point x="1275.49" y="1020" type="line"/>
      <point x="245.485" y="1020" type="line"/>
      <point x="153.139" y="620" type="line"/>
      <point x="157.139" y="620" type="line"/>
      <point x="286.544" y="834"/>
      <point x="484.562" y="1016"/>
      <point x="756.562" y="1016" type="curve" smooth="yes"/>
      <point x="784.562" y="1016" type="line"/>
      <point x="-29.076" y="4" type="line"/>
    </contour>
  </outline>
</glyph>
